<svg width="20" height="20" viewBox="0 0 20 20" fill="none" xmlns="http://www.w3.org/2000/svg">
<path d="M10.7219 3.08076C11.2808 2.47523 11.5603 2.17247 11.8572 1.99587C12.5737 1.56974 13.456 1.55649 14.1844 1.96091C14.4863 2.12852 14.7743 2.42276 15.3504 3.01124C15.9265 3.59972 16.2145 3.89396 16.3786 4.20237C16.7745 4.94651 16.7615 5.84776 16.3444 6.57969C16.1715 6.88304 15.8751 7.1685 15.2824 7.73942L8.22958 14.5324C7.10629 15.6143 6.54463 16.1553 5.84268 16.4294C5.14072 16.7036 4.36903 16.6835 2.82565 16.6431L2.61566 16.6376C2.14581 16.6253 1.91088 16.6192 1.77432 16.4642C1.63775 16.3092 1.6564 16.0699 1.69369 15.5913L1.71394 15.3314C1.81888 13.9843 1.87135 13.3108 2.13441 12.7053C2.39746 12.0998 2.85121 11.6083 3.7587 10.625L10.7219 3.08076Z" stroke="#151719" stroke-width="1.5" stroke-linejoin="round"/>
<path d="M10 3.33333L15 8.33333" stroke="#151719" stroke-width="1.5" stroke-linejoin="round"/>
<path d="M9.16663 17.6125C10.1851 16.3892 11.9871 14.467 13.6324 14.2048C15.0478 13.9794 15.5128 14.7291 15.5128 17.0882C15.5128 18.9231 17.1581 18.3989 18.3333 17.6125" stroke="#151719" stroke-width="1.5" stroke-linecap="round" stroke-linejoin="round"/>
</svg>
