<svg width="16" height="16" viewBox="0 0 16 16" fill="none" xmlns="http://www.w3.org/2000/svg">
<path d="M1.66666 8.00014C1.66666 5.01458 1.66666 3.5218 2.59415 2.5943C3.52165 1.66681 5.01443 1.66681 7.99999 1.66681C10.9855 1.66681 12.4783 1.66681 13.4059 2.5943C14.3333 3.5218 14.3333 5.01458 14.3333 8.00014C14.3333 10.9857 14.3333 12.4785 13.4059 13.406C12.4783 14.3335 10.9855 14.3335 7.99999 14.3335C5.01443 14.3335 3.52165 14.3335 2.59415 13.406C1.66666 12.4785 1.66666 10.9857 1.66666 8.00014Z" stroke="#151719" stroke-width="1.5" stroke-linejoin="round"/>
<path d="M11 8.00015C11 9.65702 9.65687 11.0002 8 11.0002C6.34315 11.0002 5 9.65702 5 8.00015C5 6.3433 6.34315 5.00015 8 5.00015C9.65687 5.00015 11 6.3433 11 8.00015Z" stroke="#151719" stroke-width="1.5"/>
<path d="M11.6719 4.3335H11.6659" stroke="#151719" stroke-width="2" stroke-linecap="round" stroke-linejoin="round"/>
</svg>
