<svg width="200" height="68" viewBox="0 0 200 68" fill="none" xmlns="http://www.w3.org/2000/svg">
<path d="M81.2473 32.9922H76.1504V14.9792H80.7006L81.1716 17.8269C82.7024 15.7374 84.9986 14.4399 87.6901 14.4399C91.2983 14.4399 94.1748 16.3862 95.6299 19.554C97.0513 16.4199 99.7849 14.4399 103.132 14.4399C108.372 14.4399 112.124 18.5851 112.124 24.6007V32.9922H107.027V24.6007C107.027 21.357 104.882 19.0907 101.82 19.0907C98.7588 19.0907 96.6897 21.357 96.6897 24.6007V32.9922H91.5927V24.6007C91.5927 21.357 89.4479 19.0907 86.3864 19.0907C83.3248 19.0907 81.2473 21.357 81.2473 24.6007V32.9922Z" fill="white"/>
<path d="M121.274 32.9922H116.724V6.57078L121.821 9.57858V17.2539C123.68 15.4509 126.304 14.4399 129.324 14.4399C135.405 14.4399 139.921 18.5093 139.921 24.0194C139.921 29.5295 135.371 33.5314 129.324 33.5314C126.262 33.5314 123.604 32.4867 121.745 30.65L121.274 32.9922ZM128.23 18.8716C124.403 18.8716 121.821 20.9947 121.821 24.0194C121.821 27.044 124.403 29.0661 128.23 29.0661C132.057 29.0661 134.824 26.9429 134.824 24.0194C134.824 21.0958 132.133 18.8716 128.23 18.8716Z" fill="white"/>
<path d="M153.505 14.4399C159.99 14.4399 164.683 18.2987 164.683 24.0194C164.683 29.7401 159.981 33.5315 153.505 33.5315C147.029 33.5315 142.361 29.4621 142.361 24.0194C142.361 18.5767 147.096 14.4399 153.505 14.4399ZM153.505 28.847C157.147 28.847 159.586 26.8334 159.586 24.0194C159.586 21.2054 157.147 19.0822 153.505 19.0822C149.863 19.0822 147.457 21.138 147.457 24.0194C147.457 26.9008 150.04 28.847 153.505 28.847Z" fill="white"/>
<path d="M173.313 32.9922H168.216V6.57079L173.313 9.57859V32.9922Z" fill="white"/>
<path d="M195.492 32.9921L194.979 30.6162C193.12 32.4529 190.462 33.5313 187.367 33.5313C181.319 33.5313 176.769 29.462 176.769 24.0193C176.769 18.5766 181.286 14.4398 187.367 14.4398C190.386 14.4398 193.044 15.4846 194.903 17.2875V6.57912L200 9.58691V33.0005H195.483L195.492 32.9921ZM188.46 29.066C192.321 29.066 194.903 27.0102 194.903 24.0193C194.903 21.0283 192.279 18.8715 188.46 18.8715C184.642 18.8715 181.866 21.0368 181.866 24.0193C181.866 27.0018 184.633 29.066 188.46 29.066Z" fill="white"/>
<path d="M55.5352 24.7018C56.0819 27.2968 58.4117 29.0239 61.4733 29.0239C63.6601 29.0239 65.4096 28.232 66.3516 26.9345H71.5243C70.1365 30.6079 66.2422 32.9838 61.2546 32.9838C54.9885 32.9838 50.2952 28.9144 50.2952 23.4717C50.2952 18.029 54.9549 13.8923 61.2546 13.8923C67.5543 13.8923 72.1467 17.751 72.1467 23.4717C72.1467 23.8677 72.1467 24.2974 72.071 24.6934H55.5352V24.7018ZM66.8983 22.1827C66.3852 19.6214 64.2404 17.9701 61.2546 17.9701C58.2687 17.9701 56.0819 19.6635 55.5352 22.1827H66.8983Z" fill="white"/>
<path d="M29.8003 23.1325L33.5702 26.882C33.7621 27.0741 34.0707 27.0741 34.2625 26.882L39.2835 21.8548C40.2844 20.8527 40.2844 19.2159 39.2835 18.2138L34.2542 13.1782C34.0623 12.9861 33.7537 12.9861 33.5619 13.1782L29.8003 16.9445C29.6085 17.1365 29.6085 17.4455 29.8003 17.6376L30.9096 18.7483C31.6436 19.4831 31.6436 20.6523 30.9096 21.337L29.8087 22.4394C29.6168 22.6314 29.6168 22.9488 29.8087 23.1408L29.8003 23.1325Z" fill="#FF5733"/>
<path d="M25.3468 27.5998C25.155 27.4077 24.8464 27.4077 24.6546 27.5998L21.3184 30.9402C20.6344 31.6249 19.4751 31.6249 18.7328 30.8901L9.14121 21.3366C8.40724 20.6017 8.40724 19.4326 9.14121 18.7478L18.7328 9.14426C19.4668 8.40938 20.6344 8.40938 21.3184 9.14426L24.6546 12.4846C24.8464 12.6767 25.155 12.6767 25.3468 12.4846L29.1084 8.71836C29.3002 8.52629 29.3002 8.21731 29.1084 8.02523L21.8355 0.751583C20.8346 -0.250528 19.1999 -0.250528 18.199 0.751583L0.750647 18.2217C-0.250216 19.2238 -0.250216 20.8606 0.750647 21.8627L18.199 39.3328C19.1999 40.3349 20.8346 40.3349 21.8355 39.3328L29.1001 32.0592C29.2919 31.8671 29.2919 31.5581 29.1001 31.3661L25.3385 27.5998H25.3468Z" fill="#FF5733"/>
<path d="M195.045 61.0828C194.192 61.0828 193.445 60.9425 192.805 60.6619C192.165 60.3813 191.658 59.9872 191.285 59.4794C190.912 58.9717 190.685 58.3771 190.605 57.6957H192.645C192.712 58.0164 192.838 58.3103 193.025 58.5775C193.225 58.8448 193.492 59.0586 193.825 59.2189C194.172 59.3792 194.578 59.4594 195.045 59.4594C195.485 59.4594 195.845 59.3993 196.125 59.279C196.418 59.1454 196.632 58.9717 196.765 58.7579C196.898 58.5308 196.965 58.2903 196.965 58.0364C196.965 57.6623 196.872 57.3817 196.685 57.1946C196.512 56.9942 196.245 56.8406 195.885 56.7337C195.538 56.6134 195.118 56.5065 194.625 56.413C194.158 56.3328 193.705 56.2259 193.265 56.0923C192.838 55.9454 192.452 55.765 192.105 55.5512C191.772 55.3374 191.505 55.0702 191.305 54.7495C191.105 54.4155 191.005 54.0079 191.005 53.5269C191.005 52.9524 191.158 52.438 191.465 51.9837C191.772 51.516 192.205 51.1553 192.765 50.9014C193.338 50.6342 194.012 50.5006 194.785 50.5006C195.905 50.5006 196.805 50.7678 197.485 51.3023C198.165 51.8367 198.565 52.5916 198.685 53.567H196.745C196.692 53.1127 196.492 52.7653 196.145 52.5248C195.798 52.271 195.338 52.144 194.765 52.144C194.192 52.144 193.752 52.2576 193.445 52.4847C193.138 52.7119 192.985 53.0125 192.985 53.3866C192.985 53.6271 193.072 53.8409 193.245 54.028C193.418 54.2151 193.672 54.3754 194.005 54.509C194.352 54.6293 194.772 54.7428 195.265 54.8497C195.972 54.9833 196.605 55.1503 197.165 55.3508C197.725 55.5512 198.172 55.8451 198.505 56.2326C198.838 56.6201 199.005 57.1746 199.005 57.8961C199.018 58.5241 198.858 59.0786 198.525 59.5596C198.205 60.0406 197.745 60.4147 197.145 60.682C196.558 60.9492 195.858 61.0828 195.045 61.0828Z" fill="white"/>
<path d="M183.708 60.8423V50.7411H185.508L185.688 52.6451C185.915 52.1908 186.208 51.81 186.568 51.5027C186.928 51.182 187.348 50.9348 187.828 50.7611C188.322 50.5874 188.882 50.5006 189.508 50.5006V52.625H188.788C188.375 52.625 187.982 52.6785 187.608 52.7854C187.235 52.8789 186.902 53.0459 186.608 53.2864C186.328 53.5269 186.108 53.8543 185.948 54.2685C185.788 54.6827 185.708 55.1971 185.708 55.8117V60.8423H183.708Z" fill="white"/>
<path d="M176.886 61.0828C175.926 61.0828 175.073 60.8623 174.326 60.4214C173.58 59.9805 172.993 59.3659 172.566 58.5775C172.153 57.7892 171.946 56.874 171.946 55.8318C171.946 54.7629 172.153 53.8343 172.566 53.0459C172.993 52.2442 173.58 51.6229 174.326 51.182C175.073 50.7277 175.94 50.5006 176.926 50.5006C177.913 50.5006 178.76 50.721 179.466 51.162C180.173 51.6029 180.72 52.1908 181.106 52.9257C181.493 53.6472 181.686 54.4489 181.686 55.3307C181.686 55.4643 181.68 55.6113 181.666 55.7717C181.666 55.9186 181.66 56.0856 181.646 56.2727H173.406V54.8497H179.686C179.646 54.0079 179.366 53.3532 178.846 52.8856C178.326 52.4046 177.68 52.1641 176.906 52.1641C176.36 52.1641 175.86 52.291 175.406 52.5449C174.953 52.7854 174.586 53.1461 174.306 53.6271C174.04 54.0948 173.906 54.6894 173.906 55.4109V55.9721C173.906 56.7203 174.04 57.355 174.306 57.8761C174.586 58.3838 174.953 58.7713 175.406 59.0385C175.86 59.2924 176.353 59.4193 176.886 59.4193C177.526 59.4193 178.053 59.279 178.466 58.9984C178.88 58.7178 179.186 58.337 179.386 57.856H181.386C181.213 58.4707 180.92 59.0252 180.506 59.5195C180.093 60.0005 179.58 60.3813 178.966 60.6619C178.366 60.9425 177.673 61.0828 176.886 61.0828Z" fill="white"/>
<path d="M165.526 61.0828C164.553 61.0828 163.686 60.8623 162.926 60.4214C162.166 59.9671 161.566 59.3458 161.126 58.5575C160.7 57.7692 160.486 56.8539 160.486 55.8117C160.486 54.7562 160.7 53.8343 161.126 53.0459C161.566 52.2442 162.166 51.6229 162.926 51.182C163.686 50.7277 164.553 50.5006 165.526 50.5006C166.753 50.5006 167.78 50.8213 168.606 51.4626C169.433 52.1039 169.96 52.9724 170.186 54.0681H168.106C167.973 53.4802 167.666 53.0259 167.186 52.7052C166.72 52.3845 166.16 52.2242 165.506 52.2242C164.973 52.2242 164.48 52.3645 164.026 52.6451C163.573 52.9123 163.206 53.3132 162.926 53.8476C162.66 54.3687 162.526 55.0167 162.526 55.7917C162.526 56.3662 162.606 56.8807 162.766 57.3349C162.926 57.7759 163.14 58.15 163.406 58.4573C163.686 58.7646 164.006 58.9984 164.366 59.1588C164.726 59.3057 165.106 59.3792 165.506 59.3792C165.946 59.3792 166.34 59.3124 166.686 59.1788C167.046 59.0318 167.346 58.8181 167.586 58.5375C167.84 58.2569 168.013 57.9228 168.106 57.5354H170.186C169.96 58.6043 169.433 59.4661 168.606 60.1208C167.78 60.7621 166.753 61.0828 165.526 61.0828Z" fill="white"/>
<path d="M149.328 60.8423V50.7411H151.128L151.248 52.4647C151.568 51.8634 152.021 51.3891 152.608 51.0417C153.195 50.681 153.868 50.5006 154.628 50.5006C155.428 50.5006 156.115 50.6609 156.688 50.9816C157.261 51.3023 157.708 51.79 158.028 52.4447C158.348 53.086 158.508 53.8944 158.508 54.8698V60.8423H156.508V55.0702C156.508 54.1349 156.301 53.4267 155.888 52.9457C155.475 52.4647 154.875 52.2242 154.088 52.2242C153.568 52.2242 153.101 52.3511 152.688 52.605C152.275 52.8455 151.941 53.2063 151.688 53.6873C151.448 54.1683 151.328 54.7562 151.328 55.451V60.8423H149.328Z" fill="white"/>
<path d="M142.506 61.0828C141.546 61.0828 140.693 60.8623 139.946 60.4214C139.199 59.9805 138.613 59.3659 138.186 58.5775C137.773 57.7892 137.566 56.874 137.566 55.8318C137.566 54.7629 137.773 53.8343 138.186 53.0459C138.613 52.2442 139.199 51.6229 139.946 51.182C140.693 50.7277 141.559 50.5006 142.546 50.5006C143.533 50.5006 144.379 50.721 145.086 51.162C145.793 51.6029 146.339 52.1908 146.726 52.9257C147.113 53.6472 147.306 54.4489 147.306 55.3307C147.306 55.4643 147.299 55.6113 147.286 55.7717C147.286 55.9186 147.279 56.0856 147.266 56.2727H139.026V54.8497H145.306C145.266 54.0079 144.986 53.3532 144.466 52.8856C143.946 52.4046 143.299 52.1641 142.526 52.1641C141.979 52.1641 141.479 52.291 141.026 52.5449C140.573 52.7854 140.206 53.1461 139.926 53.6271C139.659 54.0948 139.526 54.6894 139.526 55.4109V55.9721C139.526 56.7203 139.659 57.355 139.926 57.8761C140.206 58.3838 140.573 58.7713 141.026 59.0385C141.479 59.2924 141.973 59.4193 142.506 59.4193C143.146 59.4193 143.673 59.279 144.086 58.9984C144.499 58.7178 144.806 58.337 145.006 57.856H147.006C146.833 58.4707 146.539 59.0252 146.126 59.5195C145.713 60.0005 145.199 60.3813 144.586 60.6619C143.986 60.9425 143.293 61.0828 142.506 61.0828Z" fill="white"/>
<path d="M130.108 61.0828C129.321 61.0828 128.634 60.9225 128.048 60.6018C127.474 60.2811 127.028 59.8001 126.708 59.1588C126.401 58.5174 126.248 57.7091 126.248 56.7337V50.7411H128.248V56.5132C128.248 57.4619 128.454 58.1767 128.868 58.6577C129.281 59.1387 129.874 59.3792 130.648 59.3792C131.168 59.3792 131.634 59.2523 132.048 58.9984C132.474 58.7446 132.808 58.3771 133.048 57.8961C133.288 57.4151 133.408 56.8272 133.408 56.1324V50.7411H135.408V60.8423H133.628L133.488 59.1187C133.181 59.7333 132.734 60.2143 132.148 60.5617C131.561 60.9091 130.881 61.0828 130.108 61.0828Z" fill="white"/>
<path d="M115.429 60.8423V49.3782C115.429 48.6834 115.542 48.1156 115.769 47.6746C116.009 47.2337 116.356 46.913 116.809 46.7126C117.262 46.5122 117.809 46.412 118.449 46.412H119.629V48.1156H118.769C118.289 48.1156 117.942 48.2158 117.729 48.4162C117.529 48.6033 117.429 48.9373 117.429 49.4183V60.8423H115.429ZM113.949 52.4447V50.7411H119.849V52.4447H113.949ZM121.889 60.8423V46.412H123.889V60.8423H121.889Z" fill="white"/>
<path d="M103.351 60.8423V50.7411H105.151L105.271 52.4647C105.591 51.8634 106.044 51.3891 106.631 51.0417C107.217 50.681 107.891 50.5006 108.651 50.5006C109.451 50.5006 110.137 50.6609 110.711 50.9816C111.284 51.3023 111.731 51.79 112.051 52.4447C112.371 53.086 112.531 53.8944 112.531 54.8698V60.8423H110.531V55.0702C110.531 54.1349 110.324 53.4267 109.911 52.9457C109.497 52.4647 108.897 52.2242 108.111 52.2242C107.591 52.2242 107.124 52.3511 106.711 52.605C106.297 52.8455 105.964 53.2063 105.711 53.6873C105.471 54.1683 105.351 54.7562 105.351 55.451V60.8423H103.351Z" fill="white"/>
<path d="M98.7288 60.8423V46.8128H100.729V60.8423H98.7288Z" fill="white"/>
</svg>
