<svg width="24" height="24" viewBox="0 0 24 24" fill="none" xmlns="http://www.w3.org/2000/svg">
<g clip-path="url(#clip0_1_67685)">
<path fill-rule="evenodd" clip-rule="evenodd" d="M12.727 0.473526L15.8071 7.01301C15.9204 7.26003 16.1493 7.43432 16.4176 7.4777L23.305 8.52635C23.6163 8.58673 23.8693 8.81345 23.9632 9.11638C24.0571 9.41932 23.9769 9.74937 23.7543 9.97531L18.7705 15.0656C18.5781 15.2651 18.4916 15.544 18.5373 15.8175L19.7139 23.0051C19.778 23.314 19.6591 23.6324 19.408 23.8236C19.1569 24.0147 18.8183 24.0447 18.5376 23.9005L12.3773 20.507C12.1426 20.3769 11.8574 20.3769 11.6227 20.507L5.46244 23.9005C5.18169 24.0447 4.84313 24.0147 4.59204 23.8236C4.34094 23.6324 4.22196 23.314 4.28614 23.0051L5.46266 15.8175C5.50843 15.544 5.42194 15.2651 5.2295 15.0656L0.24571 9.97531C0.0231432 9.74937 -0.0571281 9.41932 0.0368077 9.1164C0.130744 8.81347 0.383663 8.58675 0.695019 8.52637L7.58244 7.4777C7.85069 7.43432 8.07964 7.26003 8.19285 7.01301L11.273 0.473526C11.4002 0.18568 11.6853 0 12 0C12.3147 0 12.5998 0.18568 12.727 0.473526Z" fill="#F6AB27"/>
<path fill-rule="evenodd" clip-rule="evenodd" d="M15.0579 5.42485C13.0713 6.48707 11.2369 7.81209 9.60412 9.36416C7.86391 11.0301 6.38766 12.9515 5.22619 15.0621L0.24416 9.97657C0.0216028 9.75049 -0.0584524 9.42027 0.0358656 9.11736C0.130184 8.81446 0.383563 8.58806 0.695128 8.5283L7.5807 7.47726C7.84858 7.43277 8.07751 7.25953 8.19312 7.01382L11.2717 0.471747C11.4003 0.184742 11.6855 3.05176e-05 12 3.05176e-05C12.3145 3.05176e-05 12.5997 0.184742 12.7283 0.471747L15.0579 5.42485Z" fill="#F4CD1E"/>
</g>
<defs>
<clipPath id="clip0_1_67685">
<rect width="24" height="24" fill="white"/>
</clipPath>
</defs>
</svg>
