<svg width="24" height="24" viewBox="0 0 24 24" fill="none" xmlns="http://www.w3.org/2000/svg">
<circle cx="12" cy="7" r="5" stroke="#151719" stroke-width="1.5" stroke-linejoin="round"/>
<path opacity="0.4" d="M17.5002 6C19.4332 6 21.0002 7.567 21.0002 9.5C21.0002 11.433 19.4332 13 17.5002 13C16.9633 13 16.4547 12.8791 16 12.6631" stroke="#151719" stroke-width="1.5" stroke-linecap="round" stroke-linejoin="round"/>
<path opacity="0.4" d="M5.33726 12.252C4.52293 11.6112 4 10.6167 4 9.50002C4 7.80166 5.20968 6.38583 6.81443 6.06714" stroke="#151719" stroke-width="1.5" stroke-linecap="round" stroke-linejoin="round"/>
<path d="M18 21V20C18 16.6863 15.3137 14 12 14V14C8.68629 14 6 16.6863 6 20L6 21" stroke="#151719" stroke-width="1.5" stroke-linecap="round" stroke-linejoin="round"/>
<path opacity="0.4" d="M1 20V20C1 17.2386 3.23858 15 6 15V15" stroke="#151719" stroke-width="1.5" stroke-linecap="round" stroke-linejoin="round"/>
<path opacity="0.4" d="M23 20V20C23 17.2386 20.7614 15 18 15V15" stroke="#151719" stroke-width="1.5" stroke-linecap="round" stroke-linejoin="round"/>
</svg>
